<?xml version="1.0" encoding="UTF-8"?>
<svg width="20px" height="20px" viewBox="0 0 20 20" version="1.1" xmlns="http://www.w3.org/2000/svg" xmlns:xlink="http://www.w3.org/1999/xlink">
    <!-- Generator: Sketch 59.1 (86144) - https://sketch.com -->
    <title>Shape</title>
    <desc>Created with Sketch.</desc>
    <g id="Page-1" stroke="none" stroke-width="1" fill="none" fill-rule="evenodd">
        <g id="5e907c21d658d47eb36572d6_logo" fill="#0F1117">
            <path d="M0.246737,1.80856 C0,2.37873 0,3.10582 0,4.56 L0,10 L0,15.44 C0,16.8942 0,17.6213 0.246737,18.1914 C0.549777,18.8917 1.10827,19.4502 1.80856,19.7533 C2.37873,20 3.10582,20 4.56,20 L10,20 L15.44,20 C16.8942,20 17.6213,20 18.1914,19.7533 C18.8917,19.4502 19.4502,18.8917 19.7533,18.1914 C20,17.6213 20,16.8942 20,15.44 L20,10 L20,4.56 C20,3.10582 20,2.37873 19.7533,1.80856 C19.4502,1.10827 18.8917,0.54978 18.1914,0.24674 C17.6213,0 16.8942,0 15.44,0 L10,0 L4.56,0 C3.10582,0 2.34375,0 1.80856,0.24674 C1.10827,0.54978 0.549777,1.10827 0.246737,1.80856 Z M13.1928,8.6161 C12.1947,8.6161 11.3854,7.80681 11.3854,6.80852 C11.3854,5.81073 12.1947,5.00146 13.1928,5.00146 C14.1908,5.00146 15.0001,5.81073 15.0001,6.80852 C15.0001,7.80681 14.1908,8.6161 13.1928,8.6161 Z M8.61312,6.80834 C8.61312,7.80596 7.80422,8.6149 6.80637,8.6149 C5.80902,8.6149 5.00012,7.80596 5.00012,6.80834 C5.00012,5.81072 5.80902,5.00179 6.80637,5.00179 C7.80422,5.00179 8.61312,5.81072 8.61312,6.80834 Z M13.1929,11.391 C12.1946,11.391 11.3854,12.2003 11.3854,13.1983 C11.3854,14.1964 12.1946,15.0057 13.1929,15.0057 C14.1907,15.0057 15,14.1964 15,13.1983 C15,12.2003 14.1907,11.391 13.1929,11.391 Z M6.80653,11.3927 C7.80414,11.3927 8.61305,12.2016 8.61305,13.1995 C8.61305,14.1968 7.80414,15.0057 6.80653,15.0057 C5.80892,15.0057 5,14.1968 5,13.1995 C5,12.2016 5.80892,11.3927 6.80653,11.3927 Z" id="Shape"></path>
        </g>
    </g>
</svg>