<svg width="12" height="12" viewBox="0 0 12 12" fill="none" xmlns="http://www.w3.org/2000/svg">
<path d="M6.00305 12C9.28796 12 12 9.28796 12 6.00305C12 2.71204 9.28187 0 5.99695 0C2.71204 0 0 2.71204 0 6.00305C0 9.28796 2.71204 12 6.00305 12ZM5.21686 9.03809C4.99137 9.03809 4.80853 8.93448 4.63789 8.73337L2.98019 6.72829C2.8644 6.59421 2.80955 6.44794 2.80955 6.29558C2.80955 5.97867 3.07161 5.7227 3.38243 5.7227C3.57136 5.7227 3.72372 5.80193 3.86998 5.97867L5.19858 7.64246L7.76435 3.55307C7.90452 3.33367 8.07517 3.23007 8.27019 3.23007C8.57491 3.23007 8.86135 3.44337 8.86135 3.76638C8.86135 3.90655 8.79431 4.05282 8.70899 4.19299L5.78365 8.72118C5.64347 8.92839 5.44845 9.03809 5.21686 9.03809Z" fill="#3700FF"/>
</svg>
