<svg width="24" height="24" viewBox="0 0 24 24" fill="none" xmlns="http://www.w3.org/2000/svg">
<path d="M13.9794 13.7032C14.6207 13.7032 15.1405 13.1545 15.1405 12.4775C15.1405 11.8006 14.6207 11.252 13.9794 11.252C13.3382 11.252 12.8184 11.8006 12.8184 12.4775C12.8184 13.1545 13.3382 13.7032 13.9794 13.7032Z" fill="#C1C3CC"/>
<path d="M9.82127 13.7032C10.4625 13.7032 10.9824 13.1545 10.9824 12.4775C10.9824 11.8006 10.4625 11.252 9.82127 11.252C9.18001 11.252 8.66016 11.8006 8.66016 12.4775C8.66016 13.1545 9.18001 13.7032 9.82127 13.7032Z" fill="#C1C3CC"/>
<path d="M19.4167 2.00004H4.32222C3.71574 1.99637 3.13217 2.23215 2.69765 2.65643C2.26311 3.08071 2.01251 3.6594 2 4.26744V19.1588C2.00106 19.4615 2.0623 19.7608 2.18014 20.0395C2.29798 20.3181 2.47006 20.5703 2.68629 20.7815C2.90253 20.9926 3.15859 21.1584 3.4395 21.2691C3.72039 21.3798 4.02049 21.4332 4.32222 21.4262H17.1555L16.5444 19.4039L18.0111 20.6908L19.3555 21.9164L21.8 24V4.26744C21.7632 3.65697 21.4968 3.08326 21.0543 2.66233C20.6118 2.2414 20.0265 2.00468 19.4167 2.00004ZM15.0777 16.4011C15.0777 16.4011 14.65 15.9109 14.3444 15.4819C15.1419 15.2927 15.8525 14.8394 16.3611 14.195C15.9457 14.4426 15.5173 14.6676 15.0777 14.869C14.5459 15.0885 13.9929 15.2527 13.4277 15.3594C12.456 15.5131 11.4662 15.5131 10.4944 15.3594C9.92783 15.2585 9.37434 15.0941 8.84444 14.869C8.59999 14.7465 8.29444 14.624 7.98888 14.5014C7.92777 14.5014 7.92777 14.4401 7.86666 14.4401H7.80554C7.70721 14.3731 7.60519 14.3118 7.49999 14.2563C7.99214 14.8901 8.6798 15.3427 9.45554 15.5432C9.08888 15.9721 8.72221 16.4624 8.72221 16.4624C6.21666 16.4011 5.3 14.8078 5.3 14.8078C5.34009 12.563 5.90525 10.359 6.94999 8.37328C7.85988 7.65807 8.9724 7.25043 10.1278 7.20894L10.25 7.33151C9.16919 7.54535 8.16003 8.03026 7.31666 8.74097C7.31666 8.74097 7.56111 8.61841 7.98888 8.43457C8.80195 8.07072 9.669 7.84301 10.5555 7.76047H10.7389C11.4898 7.6684 12.2491 7.6684 13 7.76047C14.1942 7.89685 15.3538 8.24985 16.4222 8.80226C15.5969 8.13555 14.6382 7.65483 13.6111 7.39278L13.7944 7.20894C14.9498 7.25043 16.0623 7.65807 16.9722 8.37328C18.0169 10.359 18.5821 12.563 18.6222 14.8078C18.1745 15.306 17.628 15.7052 17.0177 15.9795C16.4073 16.2538 15.7466 16.3974 15.0777 16.4011Z" fill="#C1C3CC"/>
</svg>
