<svg width="16" height="16" viewBox="0 0 16 16" fill="none" xmlns="http://www.w3.org/2000/svg">
<path d="M7.81898 11.1158L8.86641 10.0545C7.9142 9.97525 7.27147 9.68218 6.78743 9.19901C5.49402 7.90792 5.49402 6.0703 6.78743 4.78713L9.24729 2.33168C10.5486 1.0406 12.3737 1.03267 13.6671 2.32376C14.9684 3.63069 14.9605 5.45248 13.675 6.73564L12.2705 8.13762C12.4848 8.64455 12.5483 9.23861 12.453 9.76139L14.6352 7.58317C16.4523 5.77723 16.4602 3.20297 14.6272 1.37327C12.7863 -0.464355 10.2154 -0.448513 8.40618 1.36535L5.81936 3.94753C4.01017 5.75347 3.9943 8.32772 5.82729 10.1574C6.29546 10.6168 6.89058 10.9495 7.81898 11.1158ZM8.18399 4.8901L7.12864 5.94356C8.08877 6.03069 8.73151 6.32376 9.20761 6.79901C10.509 8.0901 10.501 9.92772 9.21555 11.2109L6.74775 13.6663C5.45434 14.9574 3.62929 14.9653 2.33588 13.6743C1.0266 12.3752 1.04247 10.5455 2.32794 9.26238L3.73244 7.8604C3.5182 7.36139 3.45472 6.75941 3.54994 6.24455L1.3678 8.41485C-0.44932 10.2287 -0.46519 12.795 1.37574 14.6327C3.20873 16.4624 5.77968 16.4465 7.5968 14.6406L10.1757 12.0584C11.9928 10.2446 12.0007 7.67822 10.1678 5.84059C9.70752 5.38119 9.11239 5.04852 8.18399 4.8901Z" fill="#A1A7B3"/>
</svg>
